<?xml version="1.0" encoding="UTF-8"?><svg id="Layer_1" xmlns="http://www.w3.org/2000/svg" viewBox="0 0 64 64"><defs><style>.cls-1,.cls-2{fill:#d43e39;}.cls-3{fill:#fff;}.cls-3,.cls-2,.cls-4{stroke:#fff;stroke-miterlimit:10;}.cls-4{fill:none;}</style></defs><path class="cls-1" d="M32,18.24c-7.6,0-13.76,6.16-13.76,13.76s6.16,13.76,13.76,13.76,13.76-6.16,13.76-13.76-6.16-13.76-13.76-13.76Zm0,0c-7.6,0-13.76,6.16-13.76,13.76s6.16,13.76,13.76,13.76,13.76-6.16,13.76-13.76-6.16-13.76-13.76-13.76Zm0-18.24C14.33,0,0,14.33,0,32s14.33,32,32,32,32-14.33,32-32S49.67,0,32,0Zm0,51.19v4.51c-13.09,0-23.7-10.61-23.7-23.7S18.91,8.3,32,8.3s23.7,10.61,23.7,23.7h-4.51c0,10.6-8.59,19.19-19.19,19.19Zm0-32.95c-7.6,0-13.76,6.16-13.76,13.76s6.16,13.76,13.76,13.76,13.76-6.16,13.76-13.76-6.16-13.76-13.76-13.76Z"/><path class="cls-1" d="M32,18.24c-7.6,0-13.76,6.16-13.76,13.76s6.16,13.76,13.76,13.76,13.76-6.16,13.76-13.76-6.16-13.76-13.76-13.76Zm0,0c-7.6,0-13.76,6.16-13.76,13.76s6.16,13.76,13.76,13.76,13.76-6.16,13.76-13.76-6.16-13.76-13.76-13.76Zm0,0c-7.6,0-13.76,6.16-13.76,13.76s6.16,13.76,13.76,13.76,13.76-6.16,13.76-13.76-6.16-13.76-13.76-13.76Zm0-15.39C15.9,2.85,2.85,15.9,2.85,32s13.05,29.15,29.15,29.15,29.15-13.05,29.15-29.15S48.1,2.85,32,2.85Zm0,55.48c-14.55,0-26.33-11.78-26.33-26.33S17.45,5.67,32,5.67v2.63c13.09,0,23.7,10.61,23.7,23.7h2.63c0,14.55-11.78,26.33-26.33,26.33Zm0-40.09c-7.6,0-13.76,6.16-13.76,13.76s6.16,13.76,13.76,13.76,13.76-6.16,13.76-13.76-6.16-13.76-13.76-13.76Zm0,0c-7.6,0-13.76,6.16-13.76,13.76s6.16,13.76,13.76,13.76,13.76-6.16,13.76-13.76-6.16-13.76-13.76-13.76Zm0,0c-7.6,0-13.76,6.16-13.76,13.76s6.16,13.76,13.76,13.76,13.76-6.16,13.76-13.76-6.16-13.76-13.76-13.76Zm0,0c-7.6,0-13.76,6.16-13.76,13.76s6.16,13.76,13.76,13.76,13.76-6.16,13.76-13.76-6.16-13.76-13.76-13.76Z"/><path class="cls-1" d="M32,12.81v-4.51c-13.09,0-23.7,10.61-23.7,23.7s10.61,23.7,23.7,23.7v-4.51c10.6,0,19.19-8.59,19.19-19.19s-8.59-19.19-19.19-19.19Zm0,32.95c-7.6,0-13.76-6.16-13.76-13.76s6.16-13.76,13.76-13.76,13.76,6.16,13.76,13.76-6.16,13.76-13.76,13.76Z"/><circle class="cls-3" cx="32" cy="32" r="8.41"/><circle class="cls-1" cx="32" cy="32" r="1.87"/><g><path class="cls-3" d="M58.33,32c0,14.55-11.78,26.33-26.33,26.33S5.67,46.55,5.67,32,17.45,5.67,32,5.67v2.63c-13.09,0-23.7,10.61-23.7,23.7s10.61,23.7,23.7,23.7v-4.51c10.6,0,19.19-8.59,19.19-19.19h7.14Z"/><path class="cls-2" d="M55.7,32h-4.51c0-10.6-8.59-19.19-19.19-19.19v-4.51c13.09,0,23.7,10.61,23.7,23.7Z"/></g><circle class="cls-4" cx="32" cy="32" r="13.76"/></svg>